# xmcd CD database file
#
# Track frame offsets:
#	150
#	26546
#	62611
#	89959
#	116324
#	137458
#	172976
#	216761
#
# Disc length: 3214 seconds
#
# Revision: 0
# Processed by: cddbd v1.5.2PL0 Copyright (c) Steve Scherf et al.
# Submitted via: CDex 1.70beta2
#
DISCID=670c8c08
DTITLE=Johnny Griffin Quintet With Rolf Ericson - The Berlin Session
DYEAR=2010
DGENRE=Jazz
TTITLE0=Double Digit
TTITLE1=Fragrance
TTITLE2=Oblivion
TTITLE3=Taboo
TTITLE4=Sweet and Handsome
TTITLE5=Korn Blues
TTITLE6=Smoke Gets in Your Eyes
TTITLE7=Billie's Bounce
EXTD=YEAR: 2010
EXTT0=
EXTT1=
EXTT2=
EXTT3=
EXTT4=
EXTT5=
EXTT6=
EXTT7=
PLAYORDER=
